<svg width="25" height="22" viewBox="0 0 25 22" fill="none" xmlns="http://www.w3.org/2000/svg">
<path fill-rule="evenodd" clip-rule="evenodd" d="M11.2967 7.45385C11.2967 10.4194 10.4921 13.0434 8.88281 15.3261C7.27353 17.6088 5.11474 19.511 2.40643 21.0327C2.28868 21.0718 2.10224 21.0035 1.84711 20.8279C1.59198 20.6523 1.38591 20.467 1.22891 20.2719C1.0719 20.0768 0.934527 19.8329 0.816774 19.5402C0.699022 19.2476 0.699022 19.0622 0.816774 18.9842C2.1513 18.0867 3.29939 17.1698 4.26103 16.2333C5.22268 15.2968 5.7035 13.8531 5.7035 11.9021C5.7035 11.4339 5.67406 11.1022 5.61518 10.9071C5.55631 10.712 5.44837 10.6145 5.29137 10.6145C5.17361 10.6145 5.04605 10.6437 4.90867 10.7022C4.77129 10.7608 4.60448 10.79 4.40822 10.79C3.26995 10.79 2.26905 10.3901 1.40554 9.59018C0.542019 8.79028 0.11026 7.53189 0.11026 5.81501C0.11026 4.37128 0.610708 3.05436 1.6116 1.86426C2.6125 0.674154 3.89796 0.0791016 5.46799 0.0791016C7.23428 0.0791016 8.64731 0.781458 9.70708 2.18617C10.7669 3.59089 11.2967 5.34678 11.2967 7.45385ZM24.7205 7.45407C24.7205 10.4196 23.9158 13.0437 22.3066 15.3263C20.6973 17.609 18.5385 19.5112 15.8302 21.033C15.7124 21.072 15.526 21.0037 15.2709 20.8281C15.0157 20.6525 14.8097 20.4672 14.6527 20.2721C14.4957 20.077 14.3583 19.8331 14.2405 19.5405C14.1228 19.2478 14.1228 19.0625 14.2405 18.9844C15.5751 18.087 16.7231 17.17 17.6848 16.2335C18.6464 15.2971 19.1272 13.8533 19.1272 11.9023C19.1272 11.4341 19.0978 11.1024 19.0389 10.9073C18.9801 10.7122 18.8721 10.6147 18.7151 10.6147C18.5974 10.6147 18.4698 10.6439 18.3324 10.7025C18.195 10.761 18.0282 10.7903 17.832 10.7903C16.6937 10.7903 15.6928 10.3903 14.8293 9.5904C13.9658 8.7905 13.534 7.53211 13.534 5.81524C13.534 4.3715 14.0345 3.05458 15.0354 1.86448C16.0362 0.674375 17.3217 0.0793228 18.8917 0.0793228C20.658 0.0793228 22.0711 0.78168 23.1308 2.18639C24.1906 3.59111 24.7205 5.347 24.7205 7.45407Z" fill="#EAEAEA"/>
</svg>
