<svg width="52" height="60" viewBox="0 0 52 60" fill="none" xmlns="http://www.w3.org/2000/svg">
<path d="M51.8332 9.17839L25.9998 0.136719L0.166504 9.17839V30.0001C0.166504 40.6615 6.71267 48.1144 12.8145 52.7411C16.4985 55.5064 20.5392 57.7614 24.827 59.4449C25.1198 59.5551 25.4143 59.6602 25.7105 59.7601L25.9998 59.8634L26.2943 59.7601C26.8592 59.5639 27.4191 59.3537 27.9735 59.1297C31.9667 57.4845 35.7342 55.3378 39.1852 52.7411C45.2896 48.1144 51.8332 40.6615 51.8332 30.0001V9.17839ZM23.4191 38.8221L12.4632 27.8611L16.116 24.2056L23.4217 31.5139L38.0356 16.9L41.691 20.5528L23.4191 38.8221Z" fill="#4E4DB3"/>
</svg>
